<?xml version="1.0" encoding="iso-8859-1"?>
<!-- Generator: Adobe Illustrator 19.0.0, SVG Export Plug-In . SVG Version: 6.00 Build 0)  -->
<svg xmlns="http://www.w3.org/2000/svg" xmlns:xlink="http://www.w3.org/1999/xlink" version="1.1" id="Capa_1" x="0px" y="0px" viewBox="0 0 490.667 490.667" style="enable-background:new 0 0 490.667 490.667;" xml:space="preserve" width="512px" height="512px">
<g>
	<g>
		<path d="M128,0H64C46.357,0,32,14.357,32,32v42.667c0,17.643,14.357,32,32,32h64c17.643,0,32-14.357,32-32V32    C160,14.357,145.643,0,128,0z M138.667,74.667c0,5.888-4.8,10.667-10.667,10.667H64c-5.867,0-10.667-4.779-10.667-10.667V32    c0-5.888,4.8-10.667,10.667-10.667h64c5.867,0,10.667,4.779,10.667,10.667V74.667z" fill="#FFFFFF"/>
	</g>
</g>
<g>
	<g>
		<path d="M277.333,0h-64c-17.643,0-32,14.357-32,32v42.667c0,17.643,14.357,32,32,32h64c17.643,0,32-14.357,32-32V32    C309.333,14.357,294.976,0,277.333,0z M288,74.667c0,5.888-4.8,10.667-10.667,10.667h-64c-5.867,0-10.667-4.779-10.667-10.667V32    c0-5.888,4.8-10.667,10.667-10.667h64C283.2,21.333,288,26.112,288,32V74.667z" fill="#FFFFFF"/>
	</g>
</g>
<g>
	<g>
		<path d="M426.667,0h-64c-17.643,0-32,14.357-32,32v42.667c0,17.643,14.357,32,32,32h64c17.643,0,32-14.357,32-32V32    C458.667,14.357,444.309,0,426.667,0z M437.333,74.667c0,5.888-4.8,10.667-10.667,10.667h-64C356.8,85.333,352,80.555,352,74.667    V32c0-5.888,4.8-10.667,10.667-10.667h64c5.867,0,10.667,4.779,10.667,10.667V74.667z" fill="#FFFFFF"/>
	</g>
</g>
<g>
	<g>
		<path d="M128,128H64c-17.643,0-32,14.357-32,32v42.667c0,17.643,14.357,32,32,32h64c17.643,0,32-14.357,32-32V160    C160,142.357,145.643,128,128,128z M138.667,202.667c0,5.888-4.8,10.667-10.667,10.667H64c-5.867,0-10.667-4.779-10.667-10.667    V160c0-5.888,4.8-10.667,10.667-10.667h64c5.867,0,10.667,4.779,10.667,10.667V202.667z" fill="#FFFFFF"/>
	</g>
</g>
<g>
	<g>
		<path d="M277.333,128h-64c-17.643,0-32,14.357-32,32v42.667c0,17.643,14.357,32,32,32h64c17.643,0,32-14.357,32-32V160    C309.333,142.357,294.976,128,277.333,128z M288,202.667c0,5.888-4.8,10.667-10.667,10.667h-64    c-5.867,0-10.667-4.779-10.667-10.667V160c0-5.888,4.8-10.667,10.667-10.667h64C283.2,149.333,288,154.112,288,160V202.667z" fill="#FFFFFF"/>
	</g>
</g>
<g>
	<g>
		<path d="M426.667,128h-64c-17.643,0-32,14.357-32,32v42.667c0,17.643,14.357,32,32,32h64c17.643,0,32-14.357,32-32V160    C458.667,142.357,444.309,128,426.667,128z M437.333,202.667c0,5.888-4.8,10.667-10.667,10.667h-64    c-5.867,0-10.667-4.779-10.667-10.667V160c0-5.888,4.8-10.667,10.667-10.667h64c5.867,0,10.667,4.779,10.667,10.667V202.667z" fill="#FFFFFF"/>
	</g>
</g>
<g>
	<g>
		<path d="M128,256H64c-17.643,0-32,14.357-32,32v42.667c0,17.643,14.357,32,32,32h64c17.643,0,32-14.357,32-32V288    C160,270.357,145.643,256,128,256z M138.667,330.667c0,5.888-4.8,10.667-10.667,10.667H64c-5.867,0-10.667-4.779-10.667-10.667    V288c0-5.888,4.8-10.667,10.667-10.667h64c5.867,0,10.667,4.779,10.667,10.667V330.667z" fill="#FFFFFF"/>
	</g>
</g>
<g>
	<g>
		<path d="M277.333,256h-64c-17.643,0-32,14.357-32,32v42.667c0,17.643,14.357,32,32,32h64c17.643,0,32-14.357,32-32V288    C309.333,270.357,294.976,256,277.333,256z M288,330.667c0,5.888-4.8,10.667-10.667,10.667h-64    c-5.867,0-10.667-4.779-10.667-10.667V288c0-5.888,4.8-10.667,10.667-10.667h64C283.2,277.333,288,282.112,288,288V330.667z" fill="#FFFFFF"/>
	</g>
</g>
<g>
	<g>
		<path d="M426.667,256h-64c-17.643,0-32,14.357-32,32v42.667c0,17.643,14.357,32,32,32h64c17.643,0,32-14.357,32-32V288    C458.667,270.357,444.309,256,426.667,256z M437.333,330.667c0,5.888-4.8,10.667-10.667,10.667h-64    c-5.867,0-10.667-4.779-10.667-10.667V288c0-5.888,4.8-10.667,10.667-10.667h64c5.867,0,10.667,4.779,10.667,10.667V330.667z" fill="#FFFFFF"/>
	</g>
</g>
<g>
	<g>
		<path d="M277.333,384h-64c-17.643,0-32,14.357-32,32v42.667c0,17.643,14.357,32,32,32h64c17.643,0,32-14.357,32-32V416    C309.333,398.357,294.976,384,277.333,384z M288,458.667c0,5.888-4.8,10.667-10.667,10.667h-64    c-5.867,0-10.667-4.779-10.667-10.667V416c0-5.888,4.8-10.667,10.667-10.667h64C283.2,405.333,288,410.112,288,416V458.667z" fill="#FFFFFF"/>
	</g>
</g>
<g>
</g>
<g>
</g>
<g>
</g>
<g>
</g>
<g>
</g>
<g>
</g>
<g>
</g>
<g>
</g>
<g>
</g>
<g>
</g>
<g>
</g>
<g>
</g>
<g>
</g>
<g>
</g>
<g>
</g>
</svg>
